<svg xmlns="http://www.w3.org/2000/svg" fill="none" viewBox="0 0 7 12"><path fill="#fff" d="M1.75 2.25a.86.86 0 0 1-.88-.88c0-.46.39-.87.88-.87a.9.9 0 0 1 .88.88c0 .49-.42.87-.88.87Zm0 4.38a.86.86 0 0 1-.88-.88c0-.46.39-.88.88-.88a.9.9 0 0 1 .88.88c0 .5-.42.88-.88.88Zm.88 3.5c0 .49-.42.87-.88.87a.86.86 0 0 1-.88-.88c0-.46.39-.87.88-.87a.9.9 0 0 1 .88.88Zm2.62-7.88a.86.86 0 0 1-.88-.88c0-.46.39-.87.88-.87a.9.9 0 0 1 .88.88c0 .49-.42.87-.88.87Zm.88 3.5c0 .5-.42.88-.88.88a.86.86 0 0 1-.88-.88c0-.46.39-.88.88-.88a.9.9 0 0 1 .88.88ZM5.25 11a.86.86 0 0 1-.88-.88c0-.46.39-.87.88-.87a.9.9 0 0 1 .88.88c0 .49-.42.87-.88.87Z"/></svg>