<svg xmlns="http://www.w3.org/2000/svg" fill="none" viewBox="0 0 18 15"><path fill="#fff" d="M1.125 4.0313C.5781 3.7304.25 3.1563.25 2.5.25 1.543 1.0156.75 2 .75c.629 0 1.2031.3555 1.504.875h5.7148c.3007-.5195.875-.875 1.5312-.875.957 0 1.75.793 1.75 1.75 0 .6563-.3555 1.2305-.875 1.5313V7.121c.5195.3008.875.875.875 1.5039 0 .9844-.793 1.75-1.75 1.75-.6562 0-1.2305-.3555-1.5313-.875H3.504c-.3008.5195-.875.875-1.5039.875-.9844 0-1.75-.7656-1.75-1.75 0-.629.3555-1.2031.875-1.504V4.0313Zm2.379-.6563c-.1642.2734-.383.4922-.629.6563V7.121c.246.164.4648.3828.629.6289h5.7148c.164-.246.3828-.4648.6289-.629V4.0313c-.2461-.164-.4649-.3828-.629-.6562H3.504Zm5.25 10.5c-.3009.5469-.875.875-1.504.875-.9844 0-1.75-.7656-1.75-1.75 0-.6289.3281-1.2031.875-1.5039V10.375h1.75v1.1211c.246.1641.4648.3828.629.6289h5.7148a2.2941 2.2941 0 0 1 .6289-.6289V8.4062a2.2936 2.2936 0 0 1-.6289-.6289h-1.2579c-.1367-.4375-.4101-.793-.7109-1.0937v-.6563h1.9688c.3007-.5468.875-.875 1.5312-.875.957 0 1.75.7657 1.75 1.75 0 .629-.3555 1.2032-.875 1.504v3.0898c.5195.3008.875.875.875 1.5039 0 .9844-.793 1.75-1.75 1.75-.6562 0-1.2305-.3281-1.5312-.875H8.7539Z"/></svg>