<svg xmlns="http://www.w3.org/2000/svg" fill="none" viewBox="0 0 15 15"><path fill="#8C8F91" d="M10.0625 6.4375c0-1.55859-.84766-2.98047-2.1875-3.77344-1.36719-.79297-3.03516-.79297-4.375 0-1.36719.79297-2.1875 2.21485-2.1875 3.77344 0 1.58594.82031 3.00781 2.1875 3.8008 1.33984.7929 3.00781.7929 4.375 0 1.33984-.79299 2.1875-2.21486 2.1875-3.8008Zm-.84766 4.4844C8.23047 11.6875 7 12.125 5.6875 12.125 2.54297 12.125 0 9.58203 0 6.4375 0 3.32031 2.54297.75 5.6875.75c3.11719 0 5.6875 2.57031 5.6875 5.6875 0 1.33984-.4648 2.57031-1.2305 3.55469l3.6641 3.63671c.2461.2734.2461.6836 0 .9297-.2734.2734-.6836.2734-.9297 0l-3.66406-3.6367Z"/></svg>